<svg xmlns="http://www.w3.org/2000/svg" data-name="Layer 1" width="466" height="431" style=""><rect id="backgroundrect" width="100%" height="100%" x="0" y="0" fill="none" stroke="none" class="" style=""/><title>Commercial delivery </title><g class="currentLayer" style=""><title>Layer 1</title><polygon points="180.6540069580078,200.50300216674805 354.2959899902344,100.25199508666992 272.62799072265625,53.10100173950195 98.98600006103516,153.35200119018555 180.6540069580078,200.50300216674805 " id="svg_1" class="" fill="#ffffff" fill-opacity="1"/><polygon points="174,212.62699508666992 0,112.36800765991211 0,312.9019889831543 174,413.1609916687012 174,212.62699508666992 " id="svg_2" class="" fill="#ffffff" fill-opacity="1"/><rect x="328" y="315.2829895019531" width="19" height="19" id="svg_3" class="" fill="#ffffff" fill-opacity="1"/><path d="M188,212.62700094604492 V413.1610009460449 l95,-54.935 V213.4650009460449 A30.037,30.037 0 0 1 312.891,183.28300094604492 H337.8 a24.533,24.533 0 0 1 23.417,-18 H361 V112.36800094604493 z" id="svg_4" class="" fill="#ffffff" fill-opacity="1"/><rect x="351" y="179.2830047607422" width="61" height="21" rx="10.16100025177002" id="svg_5" class="" fill="#ffffff" fill-opacity="1"/><polygon points="258.62799072265625,45.018001556396484 180.6540069580078,0 7.01300048828125,100.25199508666992 84.98600006103516,145.27000045776367 258.62799072265625,45.018001556396484 " id="svg_6" class="" fill="#ffffff" fill-opacity="1"/><path d="M449.916,197.28300094604492 H424.733 a23.942,23.942 0 0 1 -23.143,17 H361.217 a23.944,23.944 0 0 1 -23.144,-17 H312.891 A16.022,16.022 0 0 0 297,213.4650009460449 v202.1 A15.628,15.628 0 0 0 312.891,431.2830009460449 H449.916 A15.793,15.793 0 0 0 466,415.5650009460449 v-202.1 A16.186,16.186 0 0 0 449.916,197.28300094604492 zM314,244.31600094604494 A6.985,6.985 0 0 1 320.949,237.28300094604492 h32.975 A7.093,7.093 0 0 1 361,244.31600094604494 v4.71 a7.019,7.019 0 0 1 -7.038,6.984 A6.739,6.739 0 0 1 347.307,251.28300094604492 H328 v19 h0.276 a7,7 0 1 1 0,14 h-7.327 A6.95,6.95 0 0 1 314,277.2910009460449 zM314,308.2830009460449 a7,7 0 0 1 7,-7 h33 a7,7 0 0 1 7,7 v33 a7,7 0 0 1 -7,7 H321 a7,7 0 0 1 -7,-7 zm14.277,104 h-7.328 A6.752,6.752 0 0 1 314,405.52700094604495 V372.5520009460449 A7.191,7.191 0 0 1 320.949,365.2830009460449 h32.975 A7.3,7.3 0 0 1 361,372.5520009460449 v6.745 A7.037,7.037 0 0 1 346.929,379.2830009460449 H328 v19 h0.277 a7,7 0 1 1 0,14 zm51.664,-27.259 l-25.452,25.452 a7,7 0 0 1 -9.9,0 L333.4,399.2900009460449 a7,7 0 1 1 9.9,-9.9 l6.236,6.237 l20.5,-20.5 a7,7 0 0 1 9.9,9.9 zm0,-129.249 l-25.452,25.452 a7,7 0 0 1 -9.9,0 L333.4,270.0410009460449 a7,7 0 1 1 9.9,-9.9 l6.236,6.237 l20.5,-20.5 a7,7 0 0 1 9.9,9.9 zM441.857,396.2830009460449 H397.891 a7,7 0 0 1 0,-14 h43.966 a7,7 0 0 1 0,14 zm0,-64 H397.891 a7,7 0 0 1 0,-14 h43.966 a7,7 0 0 1 0,14 zm0,-64 H397.891 a7,7 0 0 1 0,-14 h43.966 a7,7 0 0 1 0,14 z" id="svg_7" class="" fill="#ffffff" fill-opacity="1"/></g></svg>