<svg id="Filled" height="512" viewBox="0 0 512 512" width="512" xmlns="http://www.w3.org/2000/svg"><path d="m184 280a32 32 0 0 0 -32-32h-24l-8-16h-32l8.706 26.119a32 32 0 0 0 30.358 21.881h8.936l48 128h48z" fill="#f7cca9"/><path d="m448 200v-80a96 96 0 0 0 -96-96 96 96 0 0 0 -96 96v80a32 32 0 0 0 -32 32v16a32 32 0 0 0 32 32h192a32 32 0 0 0 32-32v-16a32 32 0 0 0 -32-32z" fill="#ad6643"/><path d="m440 264h-163.62a32 32 0 0 0 -29 18.468l-47.38 93.532 40 32 40-48v128h192v-192a32 32 0 0 0 -32-32z" fill="#f7b030"/><path d="m424 392h48v96h-48z" fill="#f7cca9"/><g fill="#edc4a2"><path d="m288 184a32 32 0 0 1 -32-32 32 32 0 0 1 32-32h8v64z"/><path d="m416 120a32 32 0 0 1 32 32 32 32 0 0 1 -32 32h-8v-64z"/><path d="m328 216h48a0 0 0 0 1 0 0v48a16 16 0 0 1 -16 16h-16a16 16 0 0 1 -16-16v-48a0 0 0 0 1 0 0z"/></g><path d="m384 88-96 32v48a64 64 0 0 0 64 64 64 64 0 0 0 64-64v-48z" fill="#f7cca9"/><path d="m232 328h-144l-16 160h176z" fill="#c7312e"/><path d="m192 328h-144l-16 160h176z" fill="#eb423f"/><path d="m456 192.8v-72.8a104 104 0 0 0 -208 0v72.8a40.071 40.071 0 0 0 -32 39.2v16a40.294 40.294 0 0 0 21.829 35.623l-18.429 36.377h-11.856l-15.573-41.527a40.049 40.049 0 0 0 -39.971-38.473h-19.056l-5.789-11.578a8 8 0 0 0 -7.155-4.422h-32a8 8 0 0 0 -7.589 10.53l5.152 15.456c-.633.557-1.252 1.13-1.85 1.727a39.742 39.742 0 0 0 -11.713 28.287v40h-24a8 8 0 0 0 -7.96 7.2l-16 160a8 8 0 0 0 7.96 8.8h216a8 8 0 0 0 7.96-8.8l-7.666-76.661 23.706-28.439v105.9a8 8 0 0 0 8 8h192a8 8 0 0 0 8-8v-192a39.74 39.74 0 0 0 -4.7-18.8 40.251 40.251 0 0 0 12.7-29.2v-16a40.071 40.071 0 0 0 -32-39.2zm16 39.2v16a23.8 23.8 0 0 1 -6.92 16.871 39.806 39.806 0 0 0 -25.08-8.871h-56v-23.528a72.37 72.37 0 0 0 35.938-40.672 39.784 39.784 0 0 0 20.062-7.822v16.022a8 8 0 0 0 8 8 24.028 24.028 0 0 1 24 24zm-120-8a56.063 56.063 0 0 1 -56-56v-42.234l85.839-28.613 26.161 26.16v44.687a56.063 56.063 0 0 1 -56 56zm-16 14.186a71.469 71.469 0 0 0 32 0v25.814a8.009 8.009 0 0 1 -8 8h-16a8.009 8.009 0 0 1 -8-8zm88-70.186v-38.624a23.994 23.994 0 0 1 -.325 45.358c.206-2.218.325-4.462.325-6.734zm-72-136a88.1 88.1 0 0 1 88 88v.022a39.789 39.789 0 0 0 -20.526-7.862l-29.817-29.817a8 8 0 0 0 -8.187-1.932l-94.87 31.625a39.78 39.78 0 0 0 -22.6 7.986v-.022a88.1 88.1 0 0 1 88-88zm-71.675 142.734a23.994 23.994 0 0 1 -.325-45.358v38.624c0 2.272.119 4.516.325 6.734zm-48.325 57.266a24.028 24.028 0 0 1 24-24 8 8 0 0 0 8-8v-16.022a39.784 39.784 0 0 0 20.062 7.826 72.37 72.37 0 0 0 35.938 40.668v23.528h-43.62a40.15 40.15 0 0 0 -30.243 13.86 24.159 24.159 0 0 1 -14.137-21.86zm-56 48a8 8 0 0 0 .509 2.809l13.947 37.191h-22.456v-40a39.724 39.724 0 0 0 -6.644-22.1 24.035 24.035 0 0 1 14.644 22.1zm-60.944-40 5.789 11.578a8 8 0 0 0 7.155 4.422 23.992 23.992 0 0 1 24 24v19.882l-8.509-22.691a8 8 0 0 0 -7.491-5.191h-8.936a23.97 23.97 0 0 1 -22.764-16.411l-5.2-15.589zm-27.056 40a23.841 23.841 0 0 1 3.846-13.04 39.939 39.939 0 0 0 35.218 21.04h3.392l12 32h-54.456zm-47.16 200 14.4-144h129.52l14.4 144zm174.4 0-14.4-144h23.92l14.4 144zm72.76-152a8 8 0 0 0 -16 0v29.1l-25.937 31.124-6.1-61.024a7.981 7.981 0 0 0 -3.364-5.743l17.923-35.378c.038-.077.076-.154.112-.232a24.087 24.087 0 0 1 21.746-13.847h45a24.039 24.039 0 0 0 22.62 16h16a24.039 24.039 0 0 0 22.624-16h57.376a24.027 24.027 0 0 1 24 24v88h-32v-56a8 8 0 0 0 -16 0v152h-128zm144 152v-80h32v80z"/><circle cx="320" cy="152" r="8"/><circle cx="384" cy="152" r="8"/></svg>