<svg width="1500" height="1000" viewBox="0 0 1500 1000" fill="none" xmlns="http://www.w3.org/2000/svg">
<rect width="1500" height="998" fill="white"/>
<path fill-rule="evenodd" clip-rule="evenodd" d="M248.655 998.486C259.114 988.107 256.169 970.838 253.326 956.75C249.549 938.013 244.379 925.073 235.752 907.931C232.329 901.124 227.016 894.834 222.761 888.497C218.937 882.802 219.868 873.808 215.744 868.349C209.887 860.591 204.027 852.829 198.167 845.071C194.032 839.594 186.468 835.56 183.286 829.69C179.658 822.999 179.611 811.459 178.111 804.006C176.531 796.172 173.185 790.166 169.554 782.951C162.836 769.61 157.129 754.553 157.129 739.43C157.129 725.149 161.413 701.871 155.064 689.248C149.959 679.096 151.688 678.21 156.848 667.945C158.282 665.095 158.352 650.953 157.129 647.91C156.228 645.665 152.341 643.151 150.597 641.416C152.002 650.031 144.058 651.594 144.058 659.881C144.058 661.641 137.895 661.637 137.238 660.336C135.242 656.375 133.618 651.47 130.98 647.91C127.655 643.428 117.909 636.165 117.909 645.625C117.909 657.253 118.825 659.994 110.687 668.062C98.2548 680.397 80.6115 681.009 64.9606 675.827C49.4375 670.685 37.2313 667.387 20.8615 667.387C18.6903 667.387 19.8398 675.805 19.8398 677.795C19.8398 681.792 22.8941 683.407 25.7002 686.191C33.8267 694.262 32.9108 697.003 32.9108 708.627C32.9108 714.833 30.7359 723.655 35.2134 728.101C41.5153 734.365 49.6236 732.313 58.3449 732.313C71.5837 732.313 85.2386 751.805 93.6898 760.205C104.867 771.312 96.0946 790.8 91.7595 803.719C90.4385 807.658 88.1907 821.727 84.6584 823.48C80.6736 825.455 76.6851 827.43 72.7003 829.409C69.657 830.921 75.0175 836.176 70.0985 836.176C61.5998 836.176 53.0975 836.176 44.5988 836.176C36.7606 836.176 31.3307 843.154 26.3826 849.167C16.2162 861.524 9.43261 876.334 2.29866 890.498C-1.6533 898.344 -0.930778 901.106 7.79052 901.106C13.9648 901.106 23.7224 898.573 27.3496 893.165C31.4366 887.08 39.4499 879.398 39.4499 871.891C39.4499 865.482 53.9806 868.641 59.6184 868.641C67.0808 868.641 75.127 867.464 82.2609 869.829C92.5769 873.247 98.2913 871.706 98.2913 882.667C98.2913 902.086 100.196 918.951 103.418 938.137C104.809 946.416 103.867 949.419 101.116 957.61C100.484 959.491 99.5466 966.024 97.2696 966.024C91.0516 966.024 90.3874 967.384 85.8991 971.848C79.473 978.232 78.6775 979.905 78.6775 988.752C78.6775 994.638 92.6936 997.637 98.2877 998.489C107.049 999.819 117.004 998.489 125.871 998.489C135.107 998.489 130.98 987.466 130.98 979.569C130.98 973.863 128.995 964.465 131.097 959.25C134.87 949.892 138.639 940.534 142.409 931.18C144.908 924.982 150.126 921.057 154.83 916.374C159.997 911.233 170.207 919.355 170.207 925.699C170.207 934.139 172.098 941.081 174.174 949.316C176.882 960.063 175.579 961.852 170.488 971.968C169.872 973.192 162.533 968.714 161.267 968.087C156.359 965.649 156.885 966.276 152.896 970.241C149.601 973.52 148.816 987.641 150.597 992.003C155.772 1004.67 185.453 998.493 195.298 998.493C213.08 998.486 230.87 998.486 248.655 998.486Z" fill="#666666"/>
<path fill-rule="evenodd" clip-rule="evenodd" d="M313.678 997.799C311.547 997.799 294.136 998.668 294.136 996.789C294.136 987.796 291.101 979.258 288.912 970.555C285.415 956.641 271.705 943.122 261.569 933.046C253.964 925.485 255.054 923.137 255.054 912.127C255.054 904.959 255.054 897.794 255.054 890.622C255.054 872.455 255.054 854.287 255.054 836.123C255.054 819.875 261.569 805.241 261.569 789.196C261.569 781.962 255.054 776.721 255.054 770.13C255.054 764.238 254.658 764.674 260.551 764.674C264.994 764.674 269.433 764.674 273.875 764.674C293.653 764.674 287.621 789.112 287.621 802.038C287.621 809.439 287.712 816.033 286.262 823.237C284.866 830.18 279.772 842.223 281.172 849.184C283.339 859.951 287.621 871.902 287.621 882.887C287.621 898.198 287.342 906.584 294.136 920.091C292.515 911.033 300.517 901.022 303.705 892.574C309.177 878.067 314.648 863.56 320.12 849.053C323.828 839.224 332.593 824.172 339.73 816.484C348.503 807.029 361.841 802.951 369.167 792.017C372.639 786.837 375.722 780.69 380.165 776.274C383.571 772.893 391.842 767.67 391.842 762.653C391.842 756.692 390.497 749.248 392.409 743.548C394.234 738.106 398.357 730.84 398.357 725.093C398.357 715.737 396.568 713.756 404.868 709.623C408.493 707.82 417.894 703.665 417.894 698.892C417.894 690.877 423.075 694.759 428.627 689.238C432.408 685.476 430.917 679.187 430.917 674C428.038 690.085 446.463 698.431 452.527 710.481C456.606 718.594 460.692 723.028 467.189 729.491C473.122 735.395 481.106 728.459 485.094 736.387C490.18 746.492 488.504 746.274 480.739 753.995C475.547 759.156 466.916 764.889 463.484 771.141C459.827 777.811 459.198 788.211 457.34 795.615C456.068 800.682 466.836 811.754 469.745 816.098C472.039 819.519 469.999 829.838 469.999 834.484C469.999 840.591 473.119 857.144 469.745 862.186C465.637 868.322 461.921 876.322 456.697 881.52C450.931 887.253 441.409 893.636 437.436 900.669C433.731 907.227 433.124 917.805 431.281 925.14C429.517 932.148 425.609 938.902 424.413 945.998C423.526 951.268 421.821 965.423 427.667 965.423C429.495 965.423 436.338 964.449 437.436 965.423C437.944 965.874 437.436 970.196 437.436 970.893C437.436 972.984 440.268 974.725 441.656 976.106C442.42 976.869 443.183 977.629 443.95 978.389C442.005 980.319 440.06 982.253 438.115 984.187C436.265 986.022 438.439 989.188 437.436 991.333C433.942 998.799 427.191 997.807 420.479 997.807C416.131 997.807 411.383 993.121 411.383 988.767C411.383 980.275 410.725 977.084 406.93 969.53C401.469 958.669 398.361 947.67 398.361 935.62C398.361 929.4 391.504 933.726 389.784 937.15C386.901 942.882 384 947.986 380.43 953.307C377.482 957.699 370.36 963.496 374.595 967.709C379.565 972.653 384.982 974.976 391.289 978.112C396.703 980.802 398.364 984.939 398.364 990.319C398.364 999.617 397.168 997.807 387.916 997.807C363.165 997.799 338.421 997.799 313.678 997.799Z" fill="#996633"/>
<path fill-rule="evenodd" clip-rule="evenodd" d="M750.485 997.792C749.108 989.317 756.997 988.268 756.997 980.606C756.997 972.95 757.135 966.017 755.638 958.562C751.855 939.71 747.437 926.801 738.825 909.618C735.439 902.859 730.675 896.752 726.482 890.482C722.376 884.339 720.835 876.64 718.503 869.666C713.939 856.021 698.38 841.975 688.198 831.824C678.976 822.635 682.512 803.83 676.589 792.014C673.831 786.508 665.859 776.328 665.859 770.16C665.859 762.188 667.698 751.96 665.765 744.254C661.303 726.47 659.348 712.686 659.348 694.355C659.348 687.771 659.348 681.191 659.348 674.607C659.348 664.543 658.548 661.042 665.859 653.758C662.149 650.06 654.686 638.918 650.544 643.054C646.634 646.952 646.325 647.273 646.325 652.742C646.325 657.194 648.066 660.244 643.073 660.244C637.168 660.244 633.31 649.652 633.31 644.012C633.31 638.907 620.287 638.098 620.287 644.974C620.287 655.97 621.45 659.093 613.783 666.733C606.512 673.98 601.578 674.64 591.48 677.157C575.612 681.114 561.03 672.996 545.737 667.917C539.407 665.815 532.532 666.733 525.897 666.733C516.432 666.733 524.862 681.93 528.474 685.534C535.97 693.022 535.664 694.574 535.664 705.319C535.664 713.014 535.664 720.705 535.664 728.401C535.664 734.533 548.244 731.651 553.81 731.651C561.005 731.651 569.617 733.046 575.089 738.508C580.245 743.649 585.401 748.787 590.553 753.928C599.713 763.066 600.764 763.845 600.764 776.729C600.764 791.821 592.664 807.805 587.893 822.077C586.876 825.127 573.861 829.882 570.507 833.223C565.779 837.93 552.71 835.504 546.394 835.504C534.284 835.504 521.566 858.688 516.138 867.964C512.5 874.18 509.604 880.99 506.37 887.439C502.257 895.641 500.153 900.425 510.644 900.425C515.062 900.425 527.758 898.097 529.306 893.473C531.82 885.949 532.46 876.06 539.785 872.406C551.707 866.456 571.8 864.824 584.801 869.149C592.356 871.659 600.764 871.029 600.764 879.529C600.764 888.379 599.35 898.468 600.811 907.195C603.7 924.48 609.168 940.202 603.576 956.915C601.312 963.681 602.381 965.328 595.27 965.328C591.989 965.328 586.033 973.533 583.526 976.033C573.919 985.63 591.974 993.405 598.729 996.769C607.438 1001.11 623.263 997.781 632.946 997.781C633.611 997.781 633.313 969.183 633.313 965.692C633.313 953.913 639.519 943.357 643.872 932.503C645.918 927.409 655.9 911.665 661.386 914.402C670.746 919.073 678.878 924.502 678.878 936.38C678.878 951.224 678.929 958.733 672.374 971.821C666.335 965.794 666.913 964.8 659.351 968.571C655.99 970.247 646.329 974.55 646.329 979.035C646.329 982.883 646.329 986.723 646.329 990.571C646.329 992.655 651.528 990.389 652.84 991.289C656.946 994.101 657.426 997.778 662.476 997.778C691.807 997.792 721.144 997.792 750.485 997.792Z" fill="#CC9933"/>
<path fill-rule="evenodd" clip-rule="evenodd" d="M815.893 998.578C813.753 998.578 796.268 999.449 796.268 997.565C796.268 988.459 790.636 980.917 786.572 972.853C783.27 966.294 781.718 960.326 779.907 953.141C777.194 942.373 776.014 939.546 768.159 931.748C758.474 922.136 757.006 904.496 757.006 891.146C757.006 872.635 756.925 856.169 760.57 838.111C763.864 821.776 763.554 806.13 763.554 789.474C763.554 782.223 757.006 776.969 757.006 770.363C757.006 764.452 756.608 764.893 762.531 764.893C766.99 764.893 771.449 764.893 775.908 764.893C782.43 764.893 785.473 778.208 786.897 782.442C790.147 792.12 788.31 796.463 785.754 806.603C781.967 821.638 783.179 836.799 783.179 852.274C783.179 863.111 780.513 876.443 785.476 886.289C791.966 899.169 796.268 906.439 796.268 920.682C802.031 914.958 802.805 914.356 802.805 906.318C802.805 901.071 803.995 898.062 805.872 893.099C811.369 878.557 816.865 864.014 822.361 849.472C826.604 838.249 835.676 827.376 841.906 817.083C847.841 807.267 863.646 804.177 870.282 794.306C876.859 784.519 884.649 774.52 888.447 763.195C890.243 757.828 894.41 750.522 894.41 744.864C894.41 741.158 892.267 728.059 894.779 725.57C902.393 718.024 915.029 709.159 920.591 699.965C921.559 698.369 919.243 694.146 921.153 693.199C924.641 691.468 928.132 689.737 931.624 688.007C935.433 686.115 933.669 678.023 933.669 674C931.583 682.198 940.304 687.081 945.395 692.128C950.077 696.77 952.389 704.64 955.372 710.569C959.47 718.705 963.567 723.143 970.101 729.626C976.064 735.539 984.069 728.594 988.079 736.538C993.192 746.675 991.505 746.441 983.708 754.188C978.493 759.366 969.827 765.108 966.383 771.376C958.067 786.508 960.207 801.918 966.383 816.824C969.1 823.379 973.442 827.278 972.014 834.347C970.148 843.591 968.833 853.152 966.383 862.258C965.043 867.246 963.166 878.44 959.557 882.022C953.765 887.768 944.208 894.166 940.217 901.217C936.492 907.79 935.885 918.394 934.034 925.747C932.233 932.881 924.944 940.18 920.85 946.272C919.422 948.396 920.533 966.127 921.318 966.127C930.046 966.127 938.153 964.075 944.457 970.335C954.31 980.126 939.497 998.585 928.527 998.585C920.142 998.585 914.047 996.37 914.047 986.987C914.047 977.965 909.482 974.504 907.506 966.123C906.111 960.213 909.96 951.512 907.225 946.094C901.751 935.242 902.634 933.672 890.473 933.672C883.732 933.672 891.507 971.006 874.788 966.123C879.795 971.093 891.825 979.157 894.414 985.603C894.819 986.612 895.082 997.897 894.414 998.585C893.512 999.518 884.521 998.585 882.771 998.585C860.469 998.578 838.181 998.578 815.893 998.578Z" fill="#BFCCCC"/>
<path fill-rule="evenodd" clip-rule="evenodd" d="M1252.91 998C1256.36 994.572 1265.93 987.894 1265.93 982.997C1265.93 974.406 1266.64 967.324 1263.47 959.425C1256.62 942.335 1251.24 926.424 1246.76 908.572C1243.59 895.948 1227.9 879.47 1220.61 868.569C1216.19 861.953 1213.18 853.891 1209.62 846.779C1206.12 839.809 1200.18 835.095 1194.68 829.605C1190.15 825.083 1188.03 813.589 1185.67 807.698C1182.81 800.557 1180.6 794.032 1178.73 786.57C1174.67 770.401 1174.78 755.668 1174.78 739C1174.78 731.433 1175.86 723.217 1174.01 715.836C1171.98 707.715 1168.28 698.775 1168.28 690.362C1168.28 684.511 1166.14 672.234 1168.28 666.976C1169.43 664.131 1174.78 662.779 1174.78 659.471C1174.78 653.281 1173.41 652.633 1168.95 648.177C1167.54 646.771 1163.41 641.007 1161.76 641.007C1160.34 641.007 1155.24 646.993 1155.24 648.516C1155.24 653.984 1154.93 654.301 1151.03 658.2C1147.24 661.974 1145.65 657.409 1142.23 653.992C1140.48 652.25 1135.72 649.135 1135.72 646.487C1135.72 640.574 1136.12 641.007 1130.22 641.007C1128.14 641.007 1130.4 659.296 1126.91 662.768C1119.18 670.467 1097.36 682.358 1086.56 678.77C1070.57 673.454 1055.7 666.976 1038.77 666.976C1037.15 666.976 1031.53 666.171 1031.53 667.694C1031.53 671.002 1030.3 676.926 1031.53 679.954C1032.69 682.803 1038.05 684.154 1038.05 687.466C1038.05 691.962 1038.58 694.527 1040 698.789C1042.98 707.69 1044.56 713.497 1044.56 722.817C1044.56 731.502 1053.78 731.885 1060.16 731.885C1070 731.885 1074.18 733.67 1083.06 738.1C1087.73 740.428 1100.88 746.888 1103.16 751.354C1105.35 755.668 1103.16 768.922 1103.16 774.077C1103.16 783.135 1103.16 792.195 1103.16 801.253C1103.16 819.101 1091.88 828.369 1077.67 835.448C1072.72 837.915 1060.51 835.729 1055.28 835.729C1048.77 835.729 1041.46 843.176 1038.05 848.717C1034.74 854.095 1035.62 864.11 1031.17 868.547C1024.89 874.796 1019.2 879.769 1015.25 887.656C1013.45 891.26 1012 893.435 1012 897.395C1012 902.382 1014.06 900.309 1018.5 900.645C1025.29 901.155 1035.39 902.073 1038.2 893.693C1040.01 888.283 1041.32 876.293 1046.59 873.666C1055.89 869.028 1060.19 868.187 1070.6 868.187C1079.14 868.187 1087.67 868.187 1096.21 868.187C1103.4 868.187 1104.69 882.374 1105.55 886.658C1109.24 905.042 1109.66 921.149 1109.66 939.992C1109.66 947.231 1107.44 952.736 1105.11 959.695C1103.91 963.269 1103.47 965.225 1100.86 967.83C1095.85 972.836 1099.16 973.142 1096.64 978.534C1095.56 980.855 1091.96 983.19 1090.13 985.015C1097.34 992.196 1100.56 997.996 1110.84 997.996C1123.47 997.996 1136.1 997.996 1148.73 997.996C1144.48 991.639 1140.22 985.278 1135.97 978.92C1134.75 977.095 1146.21 962.817 1147.76 960.496C1150.93 955.753 1148.73 945.293 1148.73 939.799C1148.73 930.009 1146.62 927.656 1155.24 923.353C1159.18 921.393 1167.38 913.163 1170.3 914.624C1180.63 919.779 1181.29 918.981 1181.29 930.516C1181.29 944.357 1181.29 958.197 1181.29 972.034C1176.78 967.546 1176.38 964.733 1170.65 967.593C1162.74 971.539 1162.66 970.45 1161.76 978.53C1160.7 987.923 1161.96 997.993 1172.96 997.993C1199.61 998 1226.26 998 1252.91 998Z" fill="#663333"/>
<path fill-rule="evenodd" clip-rule="evenodd" d="M1318.6 997.793C1314.49 997.793 1310.39 997.793 1306.28 997.793C1304.43 997.793 1306.15 992.481 1305.4 990.978C1301.16 982.551 1296.93 974.124 1292.69 965.697C1289.34 959.035 1288.6 949.724 1286.78 942.491C1284.95 935.207 1276.41 932.739 1272.98 926.463C1265.59 912.991 1266.46 894.058 1266.46 879.301C1266.46 860.696 1268.38 845.542 1272.06 827.239C1273.51 820.006 1272.98 812.692 1272.98 805.317C1272.98 799.69 1275.07 787.957 1272.7 783.229C1272 781.845 1262.4 764.336 1267.48 764.336C1276.07 764.336 1283.94 762.272 1290.23 768.533C1303.39 781.616 1296.69 799.646 1292.89 814.782C1289.36 828.833 1292.52 847.107 1292.52 861.831C1292.52 873.516 1291.99 880 1297.11 890.199C1302.93 901.779 1305.56 907.166 1305.56 919.976C1313.24 912.324 1310.85 910.919 1312.08 900.527C1313.04 892.387 1316.24 883.96 1318.23 876.025C1320.45 867.168 1322.68 858.311 1324.91 849.455C1326.43 843.365 1335.21 836.073 1339.08 831.272C1350.52 817.032 1362.2 807.989 1376.96 796.981C1386.63 789.767 1394.96 769.829 1398.76 758.49C1401.65 749.845 1403.32 744.166 1403.32 735.145C1403.32 723.566 1406.64 722.106 1414.99 713.799C1418.88 709.93 1427.09 704.379 1429.38 699.472C1431.18 695.635 1428.27 694.099 1431.68 690.71C1436.71 685.708 1433.38 685.413 1435.9 680.018C1444.4 661.832 1458.17 698.398 1461.68 705.401C1465.64 713.272 1458.64 716.726 1467.04 722.296C1476.83 728.797 1480.41 731.906 1491.97 731.906C1497.12 731.906 1502.45 743.514 1498.78 747.154C1494.86 751.049 1494.55 751.363 1494.55 756.83C1494.55 759.298 1487.35 761.428 1485.38 762.407C1479.77 765.203 1468.5 767.438 1468.5 774.318C1468.5 782.737 1466.99 792.249 1469.68 800.309C1472.27 808.026 1474.62 815.441 1478.26 822.696C1482.66 831.45 1479.93 837.093 1477.97 846.819C1474.62 863.491 1466.48 874.325 1457.07 888.379C1448.42 901.284 1439.67 915.211 1434.71 930.012C1432.05 937.951 1429.38 944.446 1429.38 952.76C1429.38 954.587 1428.09 964.121 1429.38 965.366C1430.41 966.352 1439.31 965.366 1441.03 965.366C1449.67 965.366 1455.45 967.754 1455.45 977.335C1455.45 980.167 1455.45 983.006 1455.45 985.838C1455.45 994.556 1454.56 988.343 1448.93 991.309C1442.19 994.855 1439.24 1001.8 1429.38 997.793C1418.94 993.555 1426.08 984.746 1422.58 977.79C1417.65 967.961 1416.35 963.728 1416.35 952.76C1416.35 948.399 1414.19 932.946 1408.82 932.946C1402.2 932.946 1393.05 939.408 1390.28 945.916C1387.59 952.236 1396.24 968.97 1383.77 965.369C1387.5 969.09 1403.32 980.887 1403.32 985.842C1403.32 987.636 1403.96 997.796 1402.6 997.796C1397.31 997.796 1392.04 997.796 1386.76 997.796C1364.04 997.793 1341.32 997.793 1318.6 997.793Z" fill="#191919"/>
</svg>
