<svg id="Layer_1" data-name="Layer 1" xmlns="http://www.w3.org/2000/svg" viewBox="0 0 699.38 115.7"><defs><style>.cls-1,.cls-2,.cls-3{isolation:isolate;}.cls-2,.cls-3{font-size:72px;}.cls-2,.cls-3,.cls-4{fill:#fff;}.cls-2{font-family:Poppins-ExtraBold, Poppins;font-weight:800;}.cls-3{font-family:Poppins-Light, Poppins;font-weight:300;}</style></defs><g class="cls-1"><text class="cls-2" transform="translate(189.19 71.35)">Claws </text><text class="cls-3" transform="translate(434.49 71.35)">&amp;</text><text class="cls-2" transform="translate(486.26 71.35)"><tspan xml:space="preserve"> Paws</tspan></text></g><path class="cls-4" d="M128.13,47.29c-3.25-3.73-2-10,2.76-14S153.7,21.17,157,24.9s-9.52,17.8-14.29,21.83S131.38,51,128.13,47.29Z" transform="translate(0 -0.01)"/><path class="cls-4" d="M132.05,55.4c4.88-2.61,20.95-4.73,23.18-1S145,66.2,140.16,68.81s-10.65,1.74-12.89-2S127.17,58,132.05,55.4Z" transform="translate(0 -0.01)"/><path class="cls-4" d="M114.84,34.15c-4.25-2.57-5.25-9.2-2.25-14.81S132.72-5.9,135,1.76c2.19,7.34-4,21.34-7,26.89S119.08,36.72,114.84,34.15Z" transform="translate(0 -0.01)"/><path class="cls-4" d="M107.77,4.58c3.7,2.24-.7,18.35-3.31,23.23s-7.73,7-11.42,4.78-4.58-8-2-12.89S104.08,2.34,107.77,4.58Z" transform="translate(0 -0.01)"/><path class="cls-4" d="M104.92,40.24c9.57-2.35,13.49,2.48,13.49,2.48l.11.12s4.82,3.85,2.49,13.49c-2.65,10.94,1.79,16.23-3.73,22.21-6.38,6.16-12.24,4.6-16,.45s-4.77-8.58-7.56-11.38l-.06-.17c-2.8-2.8-7.18-3.89-11.32-7.62s-5.59-9.7.56-16.08C88.91,38.21,94,42.92,104.92,40.24Z" transform="translate(0 -0.01)"/><path class="cls-4" d="M27.24,55.67c-2.36-9.5,2.43-13.37,2.43-13.37l.11-.12s3.81-4.77,13.37-2.43C54,42.41,59.26,38,65.21,43.52c6.12,6.34,4.59,12.16.49,15.84s-8.51,4.71-11.27,7.47l-.17.06C51.49,69.65,50.42,74,46.73,78.1s-9.61,5.52-16-.6C25.27,71.55,29.93,66.53,27.24,55.67Zm6.34-37.42c-4-4.75-10.26-6-14-2.78s-3.42,9.67.59,14.41,10.26,6,13.95,2.78,3.47-9.67-.54-14.41ZM15.68,32.78c-5.57-3-12.14-2-14.68,2.2S.92,45,6.49,48s12.14,2,14.68-2.2.08-10-5.49-13ZM6.9,69.35c4.85,2.6,10.57,1.75,12.78-1.91s.08-8.74-4.77-11.35S4.33,54.34,2.12,58,2.05,66.74,6.9,69.35ZM53.55,33.57c3.66-2.21,4.51-7.93,1.91-12.78s-7.68-7-11.34-4.78S39.6,23.94,42.2,28.79s7.69,7,11.35,4.78Z" transform="translate(0 -0.01)"/></svg>