<svg id="Layer_1" data-name="Layer 1" xmlns="http://www.w3.org/2000/svg" viewBox="0 0 700.89 116.5"><defs><style>.cls-1{font-size:72px;font-family:Poppins-Black, Poppins;font-weight:800;}.cls-2{font-family:Poppins-Light, Poppins;font-weight:300;}.cls-3{letter-spacing:0em;}</style></defs><text class="cls-1" transform="translate(189.19 71.36)">Claws <tspan class="cls-2" x="245.3" y="0">&amp;</tspan><tspan class="cls-3" x="297.07" y="0" xml:space="preserve"> Paws</tspan></text><path d="M295.13,473.19c-3.25-3.73-2-10,2.76-14.05S320.7,447.07,324,450.8s-9.52,17.8-14.29,21.83S298.38,476.91,295.13,473.19Z" transform="translate(-167 -425.9)"/><path d="M299.05,481.3c4.88-2.61,20.95-4.73,23.18-1s-10.19,11.8-15.07,14.41-10.65,1.74-12.89-2S294.17,483.91,299.05,481.3Z" transform="translate(-167 -425.9)"/><path d="M281.84,460.05c-4.25-2.57-5.25-9.2-2.25-14.81S299.72,420,302,427.66C304.19,435,298,449,295,454.55S286.08,462.62,281.84,460.05Z" transform="translate(-167 -425.9)"/><path d="M274.77,430.48c3.7,2.24-.7,18.35-3.31,23.23s-7.73,7-11.42,4.78-4.58-8-2-12.89S271.08,428.24,274.77,430.48Z" transform="translate(-167 -425.9)"/><path d="M271.92,466.14c9.57-2.35,13.49,2.48,13.49,2.48l.11.12s4.82,3.85,2.49,13.49c-2.65,10.94,1.79,16.23-3.73,22.21-6.38,6.16-12.24,4.6-16,.45s-4.77-8.58-7.56-11.38l-.06-.17c-2.8-2.8-7.18-3.89-11.32-7.62s-5.59-9.7.56-16.08C255.91,464.11,261,468.82,271.92,466.14Z" transform="translate(-167 -425.9)"/><path d="M194.24,481.57c-2.36-9.5,2.43-13.37,2.43-13.37l.11-.12s3.81-4.77,13.37-2.43c10.87,2.66,16.11-1.73,22.06,3.77,6.12,6.34,4.59,12.16.49,15.84s-8.51,4.71-11.27,7.47l-.17.06c-2.77,2.76-3.84,7.11-7.53,11.21s-9.61,5.52-16-.6C192.27,497.45,196.93,492.43,194.24,481.57Zm6.34-37.42c-4-4.75-10.26-6-14-2.78s-3.42,9.67.59,14.41,10.26,6,13.95,2.78S204.59,448.89,200.58,444.15Zm-17.9,14.53c-5.57-3-12.14-2-14.68,2.2s-.08,10,5.49,13,12.14,2,14.68-2.2S188.25,461.68,182.68,458.68Zm-8.78,36.57c4.85,2.6,10.57,1.75,12.78-1.91s.08-8.74-4.77-11.35-10.58-1.75-12.79,1.91S169.05,492.64,173.9,495.25Zm46.65-35.78c3.66-2.21,4.51-7.93,1.91-12.78s-7.68-7-11.34-4.78-4.52,7.93-1.92,12.78S216.89,461.68,220.55,459.47Z" transform="translate(-167 -425.9)"/></svg>