<svg height="512pt" viewBox="0 0 512 512.001" width="512pt" xmlns="http://www.w3.org/2000/svg"><path d="m220.292969 440.5c-10.90625-7.878906-17.277344-15.859375-19.503907-24.410156-8.257812-31.921875-34.921874-55.222656-64.839843-55.222656-29.914063 0-57.578125 23.300781-65.835938 55.238281-2.226562 8.519531-8.597656 16.515625-19.507812 24.40625-13.28125 9.621093-19.355469 24.5-15.855469 38.847656 4.207031 17.261719 23.375 32.613281 49.59375 32.613281 11.085938 0 21.613281-2.84375 30.429688-8.214844 5.855468-3.589843 13.824218-5.492187 21.148437-5.492187 7.320313 0 14.273437 1.890625 20.207031 5.476563 8.84375 5.402343 19.3125 8.257812 30.296875 8.257812 26.203125 0 45.488281-15.273438 49.726563-32.636719 3.5-14.351562-2.589844-29.246093-15.859375-38.863281zm0 0"/><path d="m59.976562 360.867188c0-17.351563-13.71875-44.984376-29.988281-44.984376-16.265625 0-29.988281 27.632813-29.988281 44.984376 0 16.53125 13.457031 29.988281 29.988281 29.988281s29.988281-13.457031 29.988281-29.988281zm0 0"/><path d="m240.910156 315.882812c-16.265625 0-29.988281 27.632813-29.988281 44.984376 0 16.53125 13.457031 29.988281 29.988281 29.988281s29.988282-13.457031 29.988282-29.988281c0-17.351563-13.71875-44.984376-29.988282-44.984376zm0 0"/><path d="m150.945312 300.886719c0 16.535156 13.457032 29.992187 29.988282 29.992187s29.988281-13.457031 29.988281-29.992187c0-17.351563-13.71875-44.980469-29.988281-44.980469-16.269532 0-29.988282 27.628906-29.988282 44.980469zm0 0"/><path d="m89.96875 330.878906c16.53125 0 29.988281-13.457031 29.988281-29.992187 0-17.351563-13.722656-44.980469-29.988281-44.980469-16.269531 0-29.992188 27.628906-29.992188 44.980469 0 16.535156 13.457032 29.992187 29.992188 29.992187zm0 0"/><path d="m461.203125 184.59375c-10.90625-7.878906-17.277344-16.859375-19.503906-25.410156-8.257813-31.921875-35.921875-54.222656-65.839844-54.222656-29.914063 0-56.578125 22.300781-64.835937 54.238281-2.226563 8.523437-8.597657 17.515625-19.507813 25.410156-13.28125 9.621094-19.355469 24.496094-15.855469 38.847656 4.207032 17.257813 23.375 32.609375 49.59375 32.609375 11.085938 0 21.613282-2.839844 30.429688-8.214844 5.855468-3.589843 12.824218-5.492187 20.148437-5.492187 7.320313 0 15.273438 1.890625 21.207031 5.476563 8.84375 5.402343 19.3125 8.261718 30.296876 8.261718 26.203124 0 45.488281-15.277344 49.726562-32.640625 3.5-14.351562-2.589844-29.242187-15.859375-38.863281zm0 0"/><path d="m300.890625 104.960938c0-17.351563-13.722656-44.984376-29.992187-44.984376-16.265626 0-29.988282 27.632813-29.988282 44.984376 0 16.53125 13.457032 29.988281 29.988282 29.988281 16.535156 0 29.992187-13.457031 29.992187-29.988281zm0 0"/><path d="m481.820312 59.976562c-16.265624 0-29.988281 27.632813-29.988281 44.984376 0 16.53125 13.457031 29.988281 29.988281 29.988281 16.535157 0 29.992188-13.457031 29.992188-29.988281 0-17.351563-13.722656-44.984376-29.992188-44.984376zm0 0"/><path d="m391.855469 44.984375c0 16.53125 13.457031 29.988281 29.988281 29.988281s29.988281-13.457031 29.988281-29.988281c0-17.351563-13.71875-44.984375-29.988281-44.984375s-29.988281 27.632812-29.988281 44.984375zm0 0"/><path d="m300.890625 44.984375c0 16.53125 13.457031 29.988281 29.988281 29.988281s29.988282-13.457031 29.988282-29.988281c0-17.351563-13.722657-44.984375-29.988282-44.984375-16.269531 0-29.988281 27.632812-29.988281 44.984375zm0 0"/></svg>