<svg id="Layer_1_1_" enable-background="new 0 0 64 64" height="512" viewBox="0 0 64 64" width="512" xmlns="http://www.w3.org/2000/svg"><path d="m37 12c0 .351-.184.677-.485.857l-3.571 2.143 3.571 2.143c.301.18.485.506.485.857v4h23v-18h-23zm8 3.25h2v.25c0 .827.673 1.5 1.5 1.5h1c.827 0 1.5-.673 1.5-1.5s-.673-1.5-1.5-1.5h-1c-1.93 0-3.5-1.57-3.5-3.5 0-1.758 1.308-3.204 3-3.449v-2.051h2v2.051c1.692.245 3 1.691 3 3.449v.25h-2v-.25c0-.827-.673-1.5-1.5-1.5h-1c-.827 0-1.5.673-1.5 1.5s.673 1.5 1.5 1.5h1c1.93 0 3.5 1.57 3.5 3.5 0 1.758-1.308 3.204-3 3.449v2.051h-2v-2.051c-1.692-.245-3-1.691-3-3.449z"/><path d="m13.368 51.223.632 10.777h4l1.875-30h-8.042l-.833 10-6 20h5z"/><path d="m56 54v-9h2c.552 0 1-.448 1-1v-8c0-.552-.448-1-1-1h-1v-7c0-.552-.448-1-1-1h-13c-.552 0-1 .448-1 1v7h-2v-4-2h-2v1h-5v-2l-10.506-6.304c.237-3.338-1.585-6.519-4.584-8.013 2.374-.8 4.09-3.043 4.09-5.683 0-.45-.054-.887-.148-1.31l3.233-.695-.42-1.955-3.591.772c-1.063-1.686-2.937-2.812-5.074-2.812-3.309 0-6 2.691-6 6 0 2.745 1.855 5.059 4.375 5.77-2.503 1.56-3.943 4.468-3.539 7.499l1.164 8.731h8l1.485-4.419 11.515 5.419v1h5v26c0 .552.448 1 1 1h.142c.447 1.72 2 3 3.858 3s3.411-1.28 3.858-3h5.284c.447 1.72 2 3 3.858 3 2.206 0 4-1.794 4-4s-1.794-4-4-4zm-13 5c-.552 0-1-.448-1-1s.448-1 1-1 1 .448 1 1-.448 1-1 1zm13 0c-.552 0-1-.448-1-1s.448-1 1-1 1 .448 1 1-.448 1-1 1z"/></svg>